<svg width="209" height="218" viewBox="0 0 209 218" fill="none" xmlns="http://www.w3.org/2000/svg">
<rect y="5" width="209" height="213" fill="white"/>
<g filter="url(#filter0_g_14_8)">
<path d="M186.857 191.683C201.007 155.326 30.4531 204.837 31.3411 173.51" stroke="url(#paint0_linear_14_8)" stroke-width="20" stroke-linecap="round"/>
</g>
<g filter="url(#filter1_g_14_8)">
<path d="M43.3875 145.696L38.9154 154.64L39.0072 154.686L39.1001 154.73L43.3875 145.696ZM31.9955 135.584L40.4945 130.315L40.4945 130.315L31.9955 135.584ZM32.8915 107.552L39.9626 114.623L39.9626 114.623L32.8915 107.552ZM57.2115 106.912L64.0777 99.6419L64.0777 99.6419L57.2115 106.912ZM56.0595 108.064L49.1015 115.246L49.2154 115.357L49.3328 115.463L56.0595 108.064ZM34.0435 108.576L26.9724 101.505L26.9724 101.505L34.0435 108.576ZM37.8835 140.32L31.2256 147.781L31.2539 147.807L31.2824 147.832L37.8835 140.32ZM84.7315 139.808L77.8847 132.52L77.857 132.546L77.8294 132.572L84.7315 139.808ZM90.1075 53.024L97.1786 45.9529L97.1786 45.9529L90.1075 53.024ZM64.8915 53.024L57.9662 45.8101L57.8926 45.8808L57.8204 45.9529L64.8915 53.024ZM63.8675 51.872L56.9261 44.6735L56.9261 44.6736L63.8675 51.872ZM91.2595 52L84.0611 58.9414L84.1242 59.0068L84.1884 59.0711L91.2595 52ZM85.8835 140.96L92.7404 148.239L92.7682 148.213L92.7957 148.186L85.8835 140.96ZM61.4355 149.28V139.28C55.5527 139.28 51.0725 138.274 47.6749 136.662L43.3875 145.696L39.1001 154.73C45.7718 157.897 53.3236 159.28 61.4355 159.28V149.28ZM43.3875 145.696L47.8596 136.752C44.3921 135.018 42.0656 132.849 40.4945 130.315L31.9955 135.584L23.4965 140.853C27.216 146.853 32.4842 151.425 38.9154 154.64L43.3875 145.696ZM31.9955 135.584L40.4945 130.315C38.9161 127.769 38.0275 124.761 38.0275 120.992H28.0275H18.0275C18.0275 128.146 19.7843 134.866 23.4965 140.853L31.9955 135.584ZM28.0275 120.992H38.0275C38.0275 117.235 39.0336 115.552 39.9626 114.623L32.8915 107.552L25.8204 100.481C20.2641 106.037 18.0275 113.314 18.0275 120.992H28.0275ZM32.8915 107.552L39.9626 114.623C41.3102 113.275 42.8581 112.56 45.3075 112.56V102.56V92.56C37.8582 92.56 31.1288 95.1726 25.8204 100.481L32.8915 107.552ZM45.3075 102.56V112.56C48.0328 112.56 49.4106 113.299 50.3453 114.182L57.2115 106.912L64.0777 99.6419C58.8684 94.722 52.3102 92.56 45.3075 92.56V102.56ZM57.2115 106.912L50.3453 114.182C51.1462 114.939 51.8195 116.008 51.8195 118.432H61.8195H71.8195C71.8195 111.298 69.4208 104.688 64.0777 99.6419L57.2115 106.912ZM61.8195 118.432H51.8195C51.8195 117.147 52.1476 114.346 54.5564 111.937C56.9652 109.528 59.766 109.2 61.0515 109.2V119.2V129.2C62.849 129.2 66.0338 128.744 68.6986 126.079C71.3634 123.414 71.8195 120.229 71.8195 118.432H61.8195ZM61.0515 119.2V109.2C62.3369 109.2 65.1378 109.528 67.5466 111.937C69.9554 114.346 70.2835 117.147 70.2835 118.432H60.2835H50.2835C50.2835 120.229 50.7396 123.414 53.4044 126.079C56.0692 128.744 59.2541 129.2 61.0515 129.2V119.2ZM60.2835 118.432H70.2835C70.2835 111.709 67.9957 105.401 62.7862 100.665L56.0595 108.064L49.3328 115.463C49.7553 115.847 50.2835 116.451 50.2835 118.432H60.2835ZM56.0595 108.064L63.0175 100.882C58.1113 96.1287 51.8757 94.096 45.3075 94.096V104.096V114.096C47.614 114.096 48.5464 114.709 49.1015 115.246L56.0595 108.064ZM45.3075 104.096V94.096C38.3404 94.096 31.9764 96.5009 26.9724 101.505L34.0435 108.576L41.1146 115.647C42.0839 114.678 43.2293 114.096 45.3075 114.096V104.096ZM34.0435 108.576L26.9724 101.505C21.6635 106.814 19.5635 113.756 19.5635 120.992H29.5635H39.5635C39.5635 117.646 40.4502 116.311 41.1146 115.647L34.0435 108.576ZM29.5635 120.992H19.5635C19.5635 131.56 23.3957 140.795 31.2256 147.781L37.8835 140.32L44.5414 132.859C41.2779 129.947 39.5635 126.296 39.5635 120.992H29.5635ZM37.8835 140.32L31.2824 147.832C39.286 154.865 49.7791 157.744 61.4355 157.744V147.744V137.744C52.9532 137.744 47.745 135.674 44.4846 132.808L37.8835 140.32ZM61.4355 147.744V157.744C73.1858 157.744 83.7168 154.596 91.6336 147.044L84.7315 139.808L77.8294 132.572C74.6529 135.602 69.6532 137.744 61.4355 137.744V147.744ZM84.7315 139.808L91.5783 147.096C99.7341 139.435 103.18 128.935 103.18 117.152H93.1795H83.1795C83.1795 124.996 80.993 129.6 77.8847 132.52L84.7315 139.808ZM93.1795 117.152H103.18V61.728H93.1795H83.1795V117.152H93.1795ZM93.1795 61.728H103.18C103.18 56.1412 101.612 50.3859 97.1786 45.9529L90.1075 53.024L83.0364 60.0951C82.9393 59.998 82.9349 59.9319 82.9816 60.0642C83.0436 60.2397 83.1795 60.743 83.1795 61.728H93.1795ZM90.1075 53.024L97.1786 45.9529C92.7456 41.5199 86.9903 39.952 81.4035 39.952V49.952V59.952C82.3885 59.952 82.8918 60.0879 83.0673 60.1499C83.1996 60.1966 83.1335 60.1922 83.0364 60.0951L90.1075 53.024ZM81.4035 49.952V39.952H73.7235V49.952V59.952H81.4035V49.952ZM73.7235 49.952V39.952C68.1142 39.952 62.4274 41.5274 57.9662 45.8101L64.8915 53.024L71.8168 60.2379C71.8186 60.2362 71.818 60.2368 71.8161 60.2383C71.8142 60.2398 71.8149 60.239 71.8201 60.2358C71.8278 60.2312 71.8753 60.203 71.9847 60.165C72.2095 60.0868 72.7428 59.952 73.7235 59.952V49.952ZM64.8915 53.024L57.8204 45.9529C53.3874 50.3859 51.8195 56.1412 51.8195 61.728H61.8195H71.8195C71.8195 60.743 71.9554 60.2397 72.0174 60.0642C72.0641 59.9319 72.0597 59.998 71.9626 60.0951L64.8915 53.024ZM61.8195 61.728H51.8195V77.472H61.8195H71.8195V61.728H61.8195ZM61.8195 77.472H51.8195C51.8195 76.1866 52.1476 73.3857 54.5564 70.9769C56.9652 68.5681 59.7661 68.24 61.0515 68.24V78.24V88.24C62.8489 88.24 66.0338 87.7839 68.6986 85.1191C71.3634 82.4543 71.8195 79.2694 71.8195 77.472H61.8195ZM61.0515 78.24V68.24C62.3369 68.24 65.1378 68.5681 67.5466 70.9769C69.9554 73.3857 70.2835 76.1865 70.2835 77.472H60.2835H50.2835C50.2835 79.2695 50.7396 82.4543 53.4045 85.1191C56.0693 87.7839 59.2541 88.24 61.0515 88.24V78.24ZM60.2835 77.472H70.2835V61.728H60.2835H50.2835V77.472H60.2835ZM60.2835 61.728H70.2835C70.2835 60.5116 70.4553 59.8172 70.5774 59.4814C70.6828 59.1916 70.7685 59.1093 70.8089 59.0704L63.8675 51.872L56.9261 44.6736C52.0641 49.3619 50.2835 55.5617 50.2835 61.728H60.2835ZM63.8675 51.872L70.8089 59.0704C70.8823 58.9996 71.4268 58.416 73.7235 58.416V48.416V38.416C67.6575 38.416 61.6314 40.1364 56.9261 44.6735L63.8675 51.872ZM73.7235 48.416V58.416H81.4035V48.416V38.416H73.7235V48.416ZM81.4035 48.416V58.416C82.6199 58.416 83.3143 58.5878 83.6501 58.7099C83.9399 58.8153 84.0222 58.901 84.0611 58.9414L91.2595 52L98.4579 45.0586C93.7696 40.1966 87.5698 38.416 81.4035 38.416V48.416ZM91.2595 52L84.1884 59.0711C84.2307 59.1134 84.3214 59.2064 84.4285 59.5076C84.5505 59.8512 84.7155 60.5406 84.7155 61.728H94.7155H104.715C104.715 55.6811 103.001 49.5996 98.3306 44.9289L91.2595 52ZM94.7155 61.728H84.7155V117.152H94.7155H104.715V61.728H94.7155ZM94.7155 117.152H84.7155C84.7155 125.407 82.4071 130.447 78.9713 133.734L85.8835 140.96L92.7957 148.186C101.136 140.209 104.715 129.377 104.715 117.152H94.7155ZM85.8835 140.96L79.0266 133.681C75.4807 137.021 70.0555 139.28 61.4355 139.28V149.28V159.28C73.6369 159.28 84.5103 155.992 92.7404 148.239L85.8835 140.96ZM108.26 144.416L100.933 151.221L100.933 151.221L108.26 144.416ZM108.133 52L100.805 45.1955L100.738 45.267L100.673 45.3398L108.133 52ZM135.525 52.128L128.079 58.8034L128.2 58.9386L128.326 59.0694L135.525 52.128ZM134.501 53.152L141.86 46.3814L141.86 46.3814L134.501 53.152ZM109.285 53.152L101.777 46.5457L101.777 46.5457L109.285 53.152ZM109.285 143.392L101.913 150.149L101.988 150.231L102.065 150.311L109.285 143.392ZM174.949 142.624L181.456 150.217L181.518 150.164L181.579 150.11L174.949 142.624ZM174.821 117.024L167.749 124.095L167.749 124.095L174.821 117.024ZM151.141 116.256L157.521 123.956L157.532 123.947L157.542 123.938L151.141 116.256ZM143.589 126.112L134.644 121.64L134.458 122.012L134.304 122.398L143.589 126.112ZM142.693 126.496L146.406 117.211L145.932 117.021L145.44 116.881L142.693 126.496ZM142.181 125.472L133.308 120.858L133.272 120.929L133.236 121L142.181 125.472ZM150.373 114.976L144.029 107.245L143.98 107.286L143.931 107.327L150.373 114.976ZM175.845 116L168.685 122.981L168.773 123.072L168.864 123.16L175.845 116ZM176.101 143.776L182.657 151.326L182.713 151.278L182.768 151.228L176.101 143.776ZM116.453 148V138C116.258 138 116.139 137.982 116.078 137.97C116.019 137.958 115.992 137.947 115.981 137.942C115.969 137.938 115.94 137.924 115.886 137.885C115.83 137.844 115.728 137.762 115.588 137.611L108.26 144.416L100.933 151.221C105.031 155.635 110.412 158 116.453 158V148ZM108.26 144.416L115.588 137.611C115.174 137.165 114.933 136.731 114.933 135.712H104.933H94.9325C94.9325 141.519 96.9098 146.888 100.933 151.221L108.26 144.416ZM104.933 135.712H114.933V60.832H104.933H94.9325V135.712H104.933ZM104.933 60.832H114.933C114.933 59.5448 115.251 59.0418 115.592 58.6602L108.133 52L100.673 45.3398C96.7472 49.7369 94.9325 55.1219 94.9325 60.832H104.933ZM108.133 52L115.46 58.8045C115.7 58.5465 115.822 58.5005 115.833 58.4961C115.848 58.4897 116.009 58.416 116.453 58.416V48.416V38.416C110.409 38.416 104.959 40.7212 100.805 45.1955L108.133 52ZM116.453 48.416V58.416H127.205V48.416V38.416H116.453V48.416ZM127.205 48.416V58.416C127.415 58.416 127.544 58.4353 127.609 58.4485C127.672 58.4612 127.698 58.4729 127.706 58.4763C127.714 58.4797 127.74 58.4915 127.789 58.5286C127.841 58.5673 127.94 58.649 128.079 58.8034L135.525 52.128L142.97 45.4526C138.852 40.859 133.37 38.416 127.205 38.416V48.416ZM135.525 52.128L128.326 59.0694C128.777 59.5369 128.981 59.9262 128.981 60.832H138.981H148.981C148.981 54.9111 146.88 49.4978 142.723 45.1866L135.525 52.128ZM138.981 60.832H128.981V74.656H138.981H148.981V60.832H138.981ZM138.981 74.656H128.981C128.981 73.3705 129.309 70.5697 131.717 68.1609C134.126 65.7521 136.927 65.424 138.213 65.424V75.424V85.424C140.01 85.424 143.195 84.9679 145.86 82.3031C148.524 79.6383 148.981 76.4535 148.981 74.656H138.981ZM138.213 75.424V65.424C139.498 65.424 142.299 65.7521 144.708 68.1609C147.116 70.5697 147.444 73.3705 147.444 74.656H137.444H127.444C127.444 76.4535 127.901 79.6383 130.565 82.3031C133.23 84.9679 136.415 85.424 138.213 85.424V75.424ZM137.444 74.656H147.444V60.832H137.444H127.444V74.656H137.444ZM137.444 60.832H147.444C147.444 55.4211 145.577 50.4215 141.86 46.3814L134.501 53.152L127.141 59.9225C127.317 60.1139 127.358 60.217 127.371 60.2514C127.386 60.2907 127.444 60.4526 127.444 60.832H137.444ZM134.501 53.152L141.86 46.3814C138.002 42.1878 132.9 39.952 127.205 39.952V49.952V59.952C127.261 59.952 127.297 59.9546 127.317 59.9564C127.336 59.9583 127.34 59.9596 127.331 59.9578C127.322 59.956 127.303 59.9516 127.276 59.9432C127.25 59.9348 127.22 59.9238 127.188 59.9099C127.156 59.896 127.128 59.8813 127.103 59.8672C127.079 59.8531 127.062 59.8418 127.054 59.836C127.046 59.8302 127.049 59.8319 127.063 59.8444C127.077 59.8571 127.104 59.8819 127.141 59.9226L134.501 53.152ZM127.205 49.952V39.952H116.453V49.952V59.952H127.205V49.952ZM116.453 49.952V39.952C110.746 39.952 105.598 42.2037 101.777 46.5457L109.285 53.152L116.792 59.7583C116.837 59.7065 116.839 59.7144 116.788 59.752C116.736 59.7911 116.658 59.8401 116.561 59.8834C116.464 59.9265 116.388 59.947 116.349 59.9548C116.313 59.962 116.342 59.952 116.453 59.952V49.952ZM109.285 53.152L101.777 46.5457C98.2062 50.6039 96.4685 55.5487 96.4685 60.832H106.469H116.469C116.469 60.1419 116.608 59.9668 116.792 59.7583L109.285 53.152ZM106.469 60.832H96.4685V135.712H106.469H116.469V60.832H106.469ZM106.469 135.712H96.4685C96.4685 141 98.161 146.056 101.913 150.149L109.285 143.392L116.656 136.635C116.61 136.585 116.591 136.555 116.585 136.545C116.58 136.536 116.572 136.522 116.561 136.493C116.544 136.447 116.469 136.221 116.469 135.712H106.469ZM109.285 143.392L102.065 150.311C105.898 154.311 110.888 156.464 116.453 156.464V146.464V136.464C116.404 136.464 116.373 136.462 116.357 136.46C116.342 136.459 116.34 136.458 116.351 136.46C116.361 136.462 116.38 136.466 116.405 136.474C116.431 136.482 116.459 136.492 116.488 136.505C116.517 136.517 116.542 136.53 116.563 136.542C116.585 136.554 116.598 136.563 116.603 136.566C116.608 136.57 116.603 136.566 116.587 136.553C116.571 136.539 116.543 136.513 116.504 136.473L109.285 143.392ZM116.453 146.464V156.464H164.069V146.464V136.464H116.453V146.464ZM164.069 146.464V156.464C170.504 156.464 176.498 154.466 181.456 150.217L174.949 142.624L168.441 135.031C167.425 135.902 166.166 136.464 164.069 136.464V146.464ZM174.949 142.624L181.579 150.11C187.17 145.157 189.429 138.405 189.429 131.36H179.429H169.429C169.429 134.043 168.7 134.8 168.318 135.138L174.949 142.624ZM179.429 131.36H189.429V128.928H179.429H169.429V131.36H179.429ZM179.429 128.928H189.429C189.429 121.759 187.071 115.132 181.892 109.953L174.821 117.024L167.749 124.095C168.714 125.06 169.429 126.369 169.429 128.928H179.429ZM174.821 117.024L181.892 109.953C176.678 104.74 169.988 102.416 162.789 102.416V112.416V122.416C165.487 122.416 166.819 123.164 167.749 124.095L174.821 117.024ZM162.789 112.416V102.416C156.182 102.416 149.91 104.264 144.739 108.574L151.141 116.256L157.542 123.938C158.515 123.128 160.008 122.416 162.789 122.416V112.416ZM151.141 116.256L144.76 108.556C140.529 112.062 137.203 116.523 134.644 121.64L143.589 126.112L152.533 130.584C154.07 127.509 155.779 125.399 157.521 123.956L151.141 116.256ZM143.589 126.112L134.304 122.398C134.791 121.18 136.149 118.686 139.297 117.337C142.445 115.987 145.189 116.724 146.406 117.211L142.693 126.496L138.979 135.781C140.623 136.439 143.729 137.197 147.176 135.719C150.623 134.242 152.215 131.47 152.873 129.826L143.589 126.112ZM142.693 126.496L145.44 116.881C146.198 117.097 149.293 118.104 151.061 121.64C152.98 125.479 151.675 128.844 151.125 129.944L142.181 125.472L133.236 121C132.43 122.612 131.082 126.404 133.172 130.584C135.111 134.462 138.59 135.724 139.945 136.111L142.693 126.496ZM142.181 125.472L151.053 130.086C152.748 126.825 154.698 124.407 156.814 122.625L150.373 114.976L143.931 107.327C139.562 111.006 136.05 115.586 133.308 120.858L142.181 125.472ZM150.373 114.976L156.716 122.707C157.992 121.659 159.787 120.88 162.789 120.88V110.88V100.88C155.891 100.88 149.409 102.831 144.029 107.245L150.373 114.976ZM162.789 110.88V120.88C165.845 120.88 167.487 121.752 168.685 122.981L175.845 116L183.005 109.019C177.547 103.421 170.484 100.88 162.789 100.88V110.88ZM175.845 116L168.864 123.16C170.125 124.39 170.965 126.008 170.965 128.928H180.965H190.965C190.965 121.267 188.391 114.266 182.826 108.84L175.845 116ZM180.965 128.928H170.965V131.36H180.965H190.965V128.928H180.965ZM180.965 131.36H170.965C170.965 134.614 170.07 135.753 169.433 136.324L176.101 143.776L182.768 151.228C188.617 145.996 190.965 138.858 190.965 131.36H180.965ZM176.101 143.776L169.544 136.226C168.329 137.281 166.729 138 164.069 138V148V158C170.965 158 177.387 155.903 182.657 151.326L176.101 143.776ZM164.069 148V138H116.453V148V158H164.069V148Z" fill="url(#paint1_linear_14_8)"/>
</g>
<defs>
<filter id="filter0_g_14_8" x="11.3376" y="153.51" width="196.355" height="58.1751" filterUnits="userSpaceOnUse" color-interpolation-filters="sRGB">
<feFlood flood-opacity="0" result="BackgroundImageFix"/>
<feBlend mode="normal" in="SourceGraphic" in2="BackgroundImageFix" result="shape"/>
<feTurbulence type="fractalNoise" baseFrequency="0.25 0.25" numOctaves="3" seed="8937" />
<feDisplacementMap in="shape" scale="20" xChannelSelector="R" yChannelSelector="G" result="displacedImage" width="100%" height="100%" />
<feMerge result="effect1_texture_14_8">
<feMergeNode in="displacedImage"/>
</feMerge>
</filter>
<filter id="filter1_g_14_8" x="15.0275" y="35.416" width="178.937" height="126.864" filterUnits="userSpaceOnUse" color-interpolation-filters="sRGB">
<feFlood flood-opacity="0" result="BackgroundImageFix"/>
<feBlend mode="normal" in="SourceGraphic" in2="BackgroundImageFix" result="shape"/>
<feTurbulence type="fractalNoise" baseFrequency="0.28571429848670959 0.28571429848670959" numOctaves="3" seed="6748" />
<feDisplacementMap in="shape" scale="6" xChannelSelector="R" yChannelSelector="G" result="displacedImage" width="100%" height="100%" />
<feMerge result="effect1_texture_14_8">
<feMergeNode in="displacedImage"/>
</feMerge>
</filter>
<linearGradient id="paint0_linear_14_8" x1="30" y1="200" x2="134.5" y2="181" gradientUnits="userSpaceOnUse">
<stop stop-color="#C6A312"/>
<stop offset="1" stop-color="#353535"/>
</linearGradient>
<linearGradient id="paint1_linear_14_8" x1="87.5" y1="78" x2="183" y2="136" gradientUnits="userSpaceOnUse">
<stop/>
<stop offset="1" stop-color="#C7A312"/>
</linearGradient>
</defs>
</svg>
