<svg width="32" height="32" viewBox="0 0 32 32" fill="none" xmlns="http://www.w3.org/2000/svg">
  <defs>
    <!-- Main background gradient -->
    <linearGradient id="mainGradient" x1="0%" y1="0%" x2="100%" y2="100%">
      <stop offset="0%" style="stop-color:#0ea5e9;stop-opacity:1" />
      <stop offset="25%" style="stop-color:#3b82f6;stop-opacity:1" />
      <stop offset="75%" style="stop-color:#6366f1;stop-opacity:1" />
      <stop offset="100%" style="stop-color:#8b5cf6;stop-opacity:1" />
    </linearGradient>
    
    <!-- Text gradient -->
    <linearGradient id="textGradient" x1="0%" y1="0%" x2="100%" y2="100%">
      <stop offset="0%" style="stop-color:#ffffff;stop-opacity:1" />
      <stop offset="50%" style="stop-color:#f8fafc;stop-opacity:1" />
      <stop offset="100%" style="stop-color:#e2e8f0;stop-opacity:1" />
    </linearGradient>
    
    <!-- Glow effect -->
    <filter id="glow" x="-50%" y="-50%" width="200%" height="200%">
      <feGaussianBlur stdDeviation="2" result="coloredBlur"/>
      <feMerge> 
        <feMergeNode in="coloredBlur"/>
        <feMergeNode in="SourceGraphic"/>
      </feMerge>
    </filter>
    
    <!-- Inner shadow -->
    <filter id="innerShadow" x="-50%" y="-50%" width="200%" height="200%">
      <feOffset dx="0" dy="1"/>
      <feGaussianBlur stdDeviation="1" result="offset-blur"/>
      <feFlood flood-color="rgba(0,0,0,0.3)"/>
      <feComposite in2="offset-blur" operator="in"/>
      <feMerge> 
        <feMergeNode/>
        <feMergeNode in="SourceGraphic"/>
      </feMerge>
    </filter>
  </defs>
  
  <!-- Background with sophisticated shape -->
  <path d="M4 8C4 5.79086 5.79086 4 8 4H24C26.2091 4 28 5.79086 28 8V24C28 26.2091 26.2091 28 24 28H8C5.79086 28 4 26.2091 4 24V8Z" 
        fill="url(#mainGradient)" filter="url(#innerShadow)"/>
  
  <!-- Geometric accent elements -->
  <path d="M6 6L10 10L6 14V6Z" fill="rgba(255,255,255,0.15)"/>
  <path d="M26 26L22 22L26 18V26Z" fill="rgba(255,255,255,0.15)"/>
  
  <!-- Letter J - refined typography -->
  <path d="M9 9h2.5c1.1 0 2 0.9 2 2v6.5c0 1.1-0.9 2-2 2H9v-1.5h2.5c0.3 0 0.5-0.2 0.5-0.5V11.5c0-0.3-0.2-0.5-0.5-0.5H9V9z" 
        fill="url(#textGradient)" filter="url(#glow)"/>
  
  <!-- Letter L - refined typography -->
  <path d="M20.5 9H23v9.5c0 1.1-0.9 2-2 2h-2.5V19h2.5c0.3 0 0.5-0.2 0.5-0.5V9z" 
        fill="url(#textGradient)" filter="url(#glow)"/>
  
  <!-- Decorative line -->
  <path d="M7 22L25 22" stroke="rgba(255,255,255,0.4)" stroke-width="0.5" stroke-linecap="round"/>
  
  <!-- Corner accents -->
  <circle cx="8" cy="8" r="1" fill="rgba(255,255,255,0.3)"/>
  <circle cx="24" cy="24" r="1" fill="rgba(255,255,255,0.3)"/>
</svg> 