<svg width="209" height="218" viewBox="0 0 209 218" fill="none" xmlns="http://www.w3.org/2000/svg">
<rect y="5" width="209" height="213" fill="white"/>
<g filter="url(#filter0_g_14_8)">
<path d="M187.526 173.189C198.112 135.639 33.1138 201.333 30.983 170.066" stroke="url(#paint0_linear_14_8)" stroke-width="10" stroke-linecap="round"/>
</g>
<g filter="url(#filter1_g_14_8)">
<path d="M43.3875 145.696L41.1514 150.168L41.1974 150.191L41.2438 150.213L43.3875 145.696ZM31.9955 135.584L36.245 132.949L36.245 132.949L31.9955 135.584ZM32.8915 107.552L36.427 111.088L36.427 111.088L32.8915 107.552ZM57.2115 106.912L60.6446 103.277L60.6446 103.277L57.2115 106.912ZM56.0595 108.064L52.5805 111.655L52.6375 111.71L52.6961 111.764L56.0595 108.064ZM34.0435 108.576L30.508 105.04L30.508 105.04L34.0435 108.576ZM37.8835 140.32L34.5546 144.051L34.5687 144.063L34.5829 144.076L37.8835 140.32ZM84.7315 139.808L81.3081 136.164L81.2942 136.177L81.2804 136.19L84.7315 139.808ZM90.1075 53.024L93.643 49.4885L93.643 49.4885L90.1075 53.024ZM64.8915 53.024L61.4288 49.4171L61.392 49.4524L61.356 49.4885L64.8915 53.024ZM63.8675 51.872L60.3968 48.2728L60.3968 48.2728L63.8675 51.872ZM91.2595 52L87.6603 55.4707L87.6918 55.5034L87.724 55.5355L91.2595 52ZM85.8835 140.96L89.312 144.599L89.3258 144.586L89.3396 144.573L85.8835 140.96ZM61.4355 149.28V144.28C54.9955 144.28 49.7474 143.18 45.5312 141.179L43.3875 145.696L41.2438 150.213C47.097 152.991 53.8809 154.28 61.4355 154.28V149.28ZM43.3875 145.696L45.6236 141.224C41.4151 139.12 38.3532 136.35 36.245 132.949L31.9955 135.584L27.746 138.219C30.9284 143.352 35.4612 147.323 41.1514 150.168L43.3875 145.696ZM31.9955 135.584L36.245 132.949C34.1331 129.543 33.0275 125.607 33.0275 120.992H28.0275H23.0275C23.0275 127.299 24.5672 133.092 27.746 138.219L31.9955 135.584ZM28.0275 120.992H33.0275C33.0275 116.255 34.3412 113.173 36.427 111.088L32.8915 107.552L29.356 104.016C24.9565 108.416 23.0275 114.294 23.0275 120.992H28.0275ZM32.8915 107.552L36.427 111.088C38.7649 108.75 41.6081 107.56 45.3075 107.56V102.56V97.56C39.1082 97.56 33.6741 99.6983 29.356 104.016L32.8915 107.552ZM45.3075 102.56V107.56C49.1022 107.56 51.775 108.655 53.7784 110.547L57.2115 106.912L60.6446 103.277C56.504 99.3663 51.2408 97.56 45.3075 97.56V102.56ZM57.2115 106.912L53.7784 110.547C55.7149 112.376 56.8195 114.831 56.8195 118.432H61.8195H66.8195C66.8195 112.476 64.8522 107.251 60.6446 103.277L57.2115 106.912ZM61.8195 118.432H56.8195C56.8195 117.917 56.9516 116.613 58.092 115.472C59.2324 114.332 60.5368 114.2 61.0515 114.2V119.2V124.2C62.0782 124.2 63.7666 123.94 65.163 122.544C66.5594 121.147 66.8195 119.459 66.8195 118.432H61.8195ZM61.0515 119.2V114.2C61.5662 114.2 62.8706 114.332 64.011 115.472C65.1514 116.613 65.2835 117.917 65.2835 118.432H60.2835H55.2835C55.2835 119.459 55.5436 121.147 56.94 122.544C58.3364 123.94 60.0248 124.2 61.0515 124.2V119.2ZM60.2835 118.432H65.2835C65.2835 112.894 63.4356 108.012 59.4229 104.364L56.0595 108.064L52.6961 111.764C54.3154 113.236 55.2835 115.266 55.2835 118.432H60.2835ZM56.0595 108.064L59.5385 104.473C55.7201 100.774 50.8103 99.096 45.3075 99.096V104.096V109.096C48.6794 109.096 50.9376 110.064 52.5805 111.655L56.0595 108.064ZM45.3075 104.096V99.096C39.5626 99.096 34.5033 101.045 30.508 105.04L34.0435 108.576L37.579 112.112C39.557 110.134 42.007 109.096 45.3075 109.096V104.096ZM34.0435 108.576L30.508 105.04C26.3601 109.188 24.5635 114.729 24.5635 120.992H29.5635H34.5635C34.5635 116.674 35.7535 113.937 37.579 112.112L34.0435 108.576ZM29.5635 120.992H24.5635C24.5635 130.244 27.8663 138.083 34.5546 144.051L37.8835 140.32L41.2124 136.589C36.8074 132.659 34.5635 127.612 34.5635 120.992H29.5635ZM37.8835 140.32L34.5829 144.076C41.4008 150.067 50.5726 152.744 61.4355 152.744V147.744V142.744C52.1597 142.744 45.6302 140.471 41.1841 136.564L37.8835 140.32ZM61.4355 147.744V152.744C72.3027 152.744 81.4508 149.847 88.1826 143.426L84.7315 139.808L81.2804 136.19C76.9189 140.35 70.5363 142.744 61.4355 142.744V147.744ZM84.7315 139.808L88.1549 143.452C95.0488 136.976 98.1795 127.95 98.1795 117.152H93.1795H88.1795C88.1795 125.98 85.6782 132.059 81.3081 136.164L84.7315 139.808ZM93.1795 117.152H98.1795V61.728H93.1795H88.1795V117.152H93.1795ZM93.1795 61.728H98.1795C98.1795 57.0573 96.8835 52.729 93.643 49.4885L90.1075 53.024L86.572 56.5595C87.4275 57.415 88.1795 58.8894 88.1795 61.728H93.1795ZM90.1075 53.024L93.643 49.4885C90.4025 46.248 86.0742 44.952 81.4035 44.952V49.952V54.952C84.2421 54.952 85.7165 55.704 86.572 56.5595L90.1075 53.024ZM81.4035 49.952V44.952H73.7235V49.952V54.952H81.4035V49.952ZM73.7235 49.952V44.952C69.0415 44.952 64.7261 46.2517 61.4288 49.4171L64.8915 53.024L68.3542 56.6309C69.3236 55.7003 70.8962 54.952 73.7235 54.952V49.952ZM64.8915 53.024L61.356 49.4885C58.1155 52.729 56.8195 57.0573 56.8195 61.728H61.8195H66.8195C66.8195 58.8894 67.5715 57.415 68.427 56.5595L64.8915 53.024ZM61.8195 61.728H56.8195V77.472H61.8195H66.8195V61.728H61.8195ZM61.8195 77.472H56.8195C56.8195 76.9573 56.9516 75.6529 58.092 74.5125C59.2324 73.3721 60.5368 73.24 61.0515 73.24V78.24V83.24C62.0782 83.24 63.7666 82.9799 65.163 81.5835C66.5594 80.1871 66.8195 78.4987 66.8195 77.472H61.8195ZM61.0515 78.24V73.24C61.5662 73.24 62.8706 73.3721 64.011 74.5125C65.1514 75.6529 65.2835 76.9573 65.2835 77.472H60.2835H55.2835C55.2835 78.4987 55.5436 80.1871 56.94 81.5835C58.3364 82.9799 60.0248 83.24 61.0515 83.24V78.24ZM60.2835 77.472H65.2835V61.728H60.2835H55.2835V77.472H60.2835ZM60.2835 61.728H65.2835C65.2835 58.4111 66.1852 56.583 67.3382 55.4712L63.8675 51.872L60.3968 48.2728C56.7711 51.769 55.2835 56.5115 55.2835 61.728H60.2835ZM63.8675 51.872L67.3382 55.4712C68.5696 54.2838 70.4845 53.416 73.7235 53.416V48.416V43.416C68.5998 43.416 63.9441 44.8522 60.3968 48.2728L63.8675 51.872ZM73.7235 48.416V53.416H81.4035V48.416V43.416H73.7235V48.416ZM81.4035 48.416V53.416C84.7204 53.416 86.5485 54.3177 87.6603 55.4707L91.2595 52L94.8587 48.5293C91.3625 44.9036 86.62 43.416 81.4035 43.416V48.416ZM91.2595 52L87.724 55.5355C88.8447 56.6562 89.7155 58.4795 89.7155 61.728H94.7155H99.7155C99.7155 56.6139 98.2823 51.9518 94.795 48.4645L91.2595 52ZM94.7155 61.728H89.7155V117.152H94.7155H99.7155V61.728H94.7155ZM94.7155 117.152H89.7155C89.7155 126.399 87.0893 132.888 82.4274 137.347L85.8835 140.96L89.3396 144.573C96.4537 137.768 99.7155 128.385 99.7155 117.152H94.7155ZM85.8835 140.96L82.455 137.321C77.7381 141.764 70.9508 144.28 61.4355 144.28V149.28V154.28C72.7415 154.28 82.2529 151.249 89.312 144.599L85.8835 140.96ZM108.26 144.416L104.597 147.818L104.597 147.818L108.26 144.416ZM108.133 52L104.469 48.5977L104.435 48.6335L104.403 48.6699L108.133 52ZM135.525 52.128L131.802 55.4657L131.862 55.5333L131.925 55.5987L135.525 52.128ZM134.501 53.152L138.18 49.7667L138.18 49.7667L134.501 53.152ZM109.285 53.152L105.531 49.8489L105.531 49.8489L109.285 53.152ZM109.285 143.392L105.599 146.771L105.636 146.811L105.675 146.852L109.285 143.392ZM174.949 142.624L178.202 146.42L178.233 146.394L178.264 146.367L174.949 142.624ZM174.821 117.024L171.285 120.56L171.285 120.56L174.821 117.024ZM151.141 116.256L154.331 120.106L154.341 120.097L151.141 116.256ZM143.589 126.112L139.116 123.876L139.023 124.062L138.946 124.255L143.589 126.112ZM142.693 126.496L144.549 121.854L144.312 121.759L144.066 121.688L142.693 126.496ZM142.181 125.472L137.744 123.165L137.726 123.2L137.708 123.236L142.181 125.472ZM150.373 114.976L147.201 111.111L147.176 111.131L147.152 111.151L150.373 114.976ZM175.845 116L172.265 119.491L172.309 119.536L172.354 119.58L175.845 116ZM176.101 143.776L179.379 147.551L179.407 147.527L179.434 147.502L176.101 143.776ZM116.453 148V143C114.609 143 113.203 142.391 111.924 141.014L108.26 144.416L104.597 147.818C107.755 151.22 111.811 153 116.453 153V148ZM108.26 144.416L111.924 141.014C110.608 139.596 109.933 137.928 109.933 135.712H104.933H99.9325C99.9325 140.322 101.476 144.457 104.597 147.818L108.26 144.416ZM104.933 135.712H109.933V60.832H104.933H99.9325V135.712H104.933ZM104.933 60.832H109.933C109.933 58.439 110.625 56.7156 111.862 55.3301L108.133 52L104.403 48.6699C101.373 52.0631 99.9325 56.2276 99.9325 60.832H104.933ZM108.133 52L111.796 55.4022C113.047 54.0554 114.482 53.416 116.453 53.416V48.416V43.416C111.767 43.416 107.655 45.1659 104.469 48.5977L108.133 52ZM116.453 48.416V53.416H127.205V48.416V43.416H116.453V48.416ZM127.205 48.416V53.416C129.114 53.416 130.533 54.0505 131.802 55.4657L135.525 52.128L139.247 48.7903C136.079 45.2562 131.951 43.416 127.205 43.416V48.416ZM135.525 52.128L131.925 55.5987C133.303 57.0271 133.981 58.6724 133.981 60.832H138.981H143.981C143.981 56.1649 142.354 52.0076 139.124 48.6573L135.525 52.128ZM138.981 60.832H133.981V74.656H138.981H143.981V60.832H138.981ZM138.981 74.656H133.981C133.981 74.1413 134.113 72.8369 135.253 71.6965C136.393 70.5561 137.698 70.424 138.213 70.424V75.424V80.424C139.239 80.424 140.928 80.1639 142.324 78.7675C143.72 77.3711 143.981 75.6827 143.981 74.656H138.981ZM138.213 75.424V70.424C138.727 70.424 140.032 70.5561 141.172 71.6965C142.312 72.8369 142.444 74.1413 142.444 74.656H137.444H132.444C132.444 75.6827 132.705 77.3711 134.101 78.7675C135.497 80.1639 137.186 80.424 138.213 80.424V75.424ZM137.444 74.656H142.444V60.832H137.444H132.444V74.656H137.444ZM137.444 60.832H142.444C142.444 56.6332 141.02 52.8534 138.18 49.7667L134.501 53.152L130.821 56.5373C131.906 57.7173 132.444 59.0574 132.444 60.832H137.444ZM134.501 53.152L138.18 49.7667C135.27 46.6032 131.503 44.952 127.205 44.952V49.952V54.952C128.709 54.952 129.806 55.4341 130.821 56.5373L134.501 53.152ZM127.205 49.952V44.952H116.453V49.952V54.952H127.205V49.952ZM116.453 49.952V44.952C112.149 44.952 108.38 46.6112 105.531 49.8489L109.285 53.152L113.038 56.4551C113.944 55.4261 114.954 54.952 116.453 54.952V49.952ZM109.285 53.152L105.531 49.8489C102.807 52.9446 101.469 56.697 101.469 60.832H106.469H111.469C111.469 58.9936 112.008 57.6261 113.038 56.4551L109.285 53.152ZM106.469 60.832H101.469V135.712H106.469H111.469V60.832H106.469ZM106.469 135.712H101.469C101.469 139.892 102.784 143.7 105.599 146.771L109.285 143.392L112.97 140.013C112.03 138.988 111.469 137.676 111.469 135.712H106.469ZM109.285 143.392L105.675 146.852C108.572 149.875 112.262 151.464 116.453 151.464V146.464V141.464C115.011 141.464 113.922 141.005 112.894 139.932L109.285 143.392ZM116.453 146.464V151.464H164.069V146.464V141.464H116.453V146.464ZM164.069 146.464V151.464C169.42 151.464 174.23 149.825 178.202 146.42L174.949 142.624L171.695 138.828C169.694 140.543 167.251 141.464 164.069 141.464V146.464ZM174.949 142.624L178.264 146.367C182.553 142.568 184.429 137.315 184.429 131.36H179.429H174.429C174.429 135.133 173.318 137.389 171.633 138.881L174.949 142.624ZM179.429 131.36H184.429V128.928H179.429H174.429V131.36H179.429ZM179.429 128.928H184.429C184.429 122.911 182.482 117.614 178.356 113.488L174.821 117.024L171.285 120.56C173.303 122.578 174.429 125.217 174.429 128.928H179.429ZM174.821 117.024L178.356 113.488C174.213 109.346 168.863 107.416 162.789 107.416V112.416V117.416C166.613 117.416 169.284 118.558 171.285 120.56L174.821 117.024ZM162.789 112.416V107.416C157.139 107.416 152.061 108.98 147.94 112.415L151.141 116.256L154.341 120.097C156.364 118.412 159.052 117.416 162.789 117.416V112.416ZM151.141 116.256L147.95 112.406C144.341 115.396 141.42 119.269 139.116 123.876L143.589 126.112L148.061 128.348C149.853 124.763 151.966 122.065 154.331 120.106L151.141 116.256ZM143.589 126.112L138.946 124.255C139.147 123.753 139.767 122.575 141.267 121.932C142.766 121.29 144.047 121.653 144.549 121.854L142.693 126.496L140.836 131.138C141.764 131.51 143.408 131.894 145.206 131.124C147.004 130.353 147.859 128.898 148.231 127.969L143.589 126.112ZM142.693 126.496L144.066 121.688C144.296 121.754 145.747 122.193 146.589 123.876C147.506 125.71 146.864 127.286 146.653 127.708L142.181 125.472L137.708 123.236C137.241 124.17 136.557 126.173 137.644 128.348C138.656 130.372 140.492 131.067 141.319 131.304L142.693 126.496ZM142.181 125.472L146.617 127.779C148.574 124.015 150.914 121.057 153.593 118.801L150.373 114.976L147.152 111.151C143.346 114.357 140.225 118.396 137.744 123.165L142.181 125.472ZM150.373 114.976L153.544 118.841C155.846 116.952 158.813 115.88 162.789 115.88V110.88V105.88C156.865 105.88 151.555 107.538 147.201 111.111L150.373 114.976ZM162.789 110.88V115.88C167.005 115.88 170.002 117.169 172.265 119.491L175.845 116L179.425 112.509C175.032 108.004 169.324 105.88 162.789 105.88V110.88ZM175.845 116L172.354 119.58C174.691 121.859 175.965 124.823 175.965 128.928H180.965H185.965C185.965 122.452 183.824 116.797 179.335 112.42L175.845 116ZM180.965 128.928H175.965V131.36H180.965H185.965V128.928H180.965ZM180.965 131.36H175.965C175.965 135.675 174.706 138.314 172.767 140.05L176.101 143.776L179.434 147.502C183.98 143.435 185.965 137.797 185.965 131.36H180.965ZM176.101 143.776L172.822 140.001C170.593 141.936 167.788 143 164.069 143V148V153C169.906 153 175.123 151.248 179.379 147.551L176.101 143.776ZM164.069 148V143H116.453V148V153H164.069V148Z" fill="url(#paint1_linear_14_8)"/>
</g>
<g filter="url(#filter2_g_14_8)">
<circle cx="46" cy="126" r="8" fill="#D9D9D9"/>
<circle cx="46" cy="126" r="5" stroke="url(#paint2_linear_14_8)" stroke-width="6"/>
</g>
<defs>
<filter id="filter0_g_14_8" x="15.9828" y="146.222" width="187.031" height="47.5742" filterUnits="userSpaceOnUse" color-interpolation-filters="sRGB">
<feFlood flood-opacity="0" result="BackgroundImageFix"/>
<feBlend mode="normal" in="SourceGraphic" in2="BackgroundImageFix" result="shape"/>
<feTurbulence type="fractalNoise" baseFrequency="0.25 0.25" numOctaves="3" seed="8937" />
<feDisplacementMap in="shape" scale="20" xChannelSelector="R" yChannelSelector="G" result="displacedImage" width="100%" height="100%" />
<feMerge result="effect1_texture_14_8">
<feMergeNode in="displacedImage"/>
</feMerge>
</filter>
<filter id="filter1_g_14_8" x="20.0275" y="40.416" width="168.937" height="116.864" filterUnits="userSpaceOnUse" color-interpolation-filters="sRGB">
<feFlood flood-opacity="0" result="BackgroundImageFix"/>
<feBlend mode="normal" in="SourceGraphic" in2="BackgroundImageFix" result="shape"/>
<feTurbulence type="fractalNoise" baseFrequency="0.28571429848670959 0.28571429848670959" numOctaves="3" seed="6748" />
<feDisplacementMap in="shape" scale="6" xChannelSelector="R" yChannelSelector="G" result="displacedImage" width="100%" height="100%" />
<feMerge result="effect1_texture_14_8">
<feMergeNode in="displacedImage"/>
</feMerge>
</filter>
<filter id="filter2_g_14_8" x="26" y="106" width="40" height="40" filterUnits="userSpaceOnUse" color-interpolation-filters="sRGB">
<feFlood flood-opacity="0" result="BackgroundImageFix"/>
<feBlend mode="normal" in="SourceGraphic" in2="BackgroundImageFix" result="shape"/>
<feTurbulence type="fractalNoise" baseFrequency="0.28571429848670959 0.28571429848670959" numOctaves="3" seed="95" />
<feDisplacementMap in="shape" scale="24" xChannelSelector="R" yChannelSelector="G" result="displacedImage" width="100%" height="100%" />
<feMerge result="effect1_texture_14_8">
<feMergeNode in="displacedImage"/>
</feMerge>
</filter>
<linearGradient id="paint0_linear_14_8" x1="187.984" y1="171.566" x2="31.0156" y2="168.434" gradientUnits="userSpaceOnUse">
<stop stop-color="#9DC8FF"/>
<stop offset="1" stop-color="#353535"/>
</linearGradient>
<linearGradient id="paint1_linear_14_8" x1="57.5" y1="42.5" x2="181" y2="155" gradientUnits="userSpaceOnUse">
<stop/>
<stop offset="0.711538" stop-color="#9BC5FB"/>
</linearGradient>
<linearGradient id="paint2_linear_14_8" x1="46" y1="118" x2="46" y2="134" gradientUnits="userSpaceOnUse">
<stop/>
<stop offset="1" stop-color="#9DC7FE"/>
</linearGradient>
</defs>
</svg>
