<svg width="32" height="32" viewBox="0 0 32 32" fill="none" xmlns="http://www.w3.org/2000/svg">
  <defs>
    <!-- Dark gradient background -->
    <linearGradient id="darkGradient" x1="0%" y1="0%" x2="100%" y2="100%">
      <stop offset="0%" style="stop-color:#0f172a;stop-opacity:1" />
      <stop offset="50%" style="stop-color:#1e293b;stop-opacity:1" />
      <stop offset="100%" style="stop-color:#334155;stop-opacity:1" />
    </linearGradient>
    
    <!-- Neon blue accent -->
    <linearGradient id="neonGradient" x1="0%" y1="0%" x2="100%" y2="100%">
      <stop offset="0%" style="stop-color:#06b6d4;stop-opacity:1" />
      <stop offset="100%" style="stop-color:#0ea5e9;stop-opacity:1" />
    </linearGradient>
    
    <!-- Glow effect for neon elements -->
    <filter id="neonGlow" x="-100%" y="-100%" width="300%" height="300%">
      <feGaussianBlur stdDeviation="3" result="coloredBlur"/>
      <feMerge> 
        <feMergeNode in="coloredBlur"/>
        <feMergeNode in="SourceGraphic"/>
      </feMerge>
    </filter>
    
    <!-- Subtle glow for text -->
    <filter id="textGlow" x="-50%" y="-50%" width="200%" height="200%">
      <feGaussianBlur stdDeviation="1" result="coloredBlur"/>
      <feMerge> 
        <feMergeNode in="coloredBlur"/>
        <feMergeNode in="SourceGraphic"/>
      </feMerge>
    </filter>
  </defs>
  
  <!-- Background -->
  <rect width="32" height="32" rx="4" fill="url(#darkGradient)"/>
  
  <!-- Geometric accent lines -->
  <path d="M4 8L12 8" stroke="url(#neonGradient)" stroke-width="1" stroke-linecap="round" filter="url(#neonGlow)"/>
  <path d="M20 24L28 24" stroke="url(#neonGradient)" stroke-width="1" stroke-linecap="round" filter="url(#neonGlow)"/>
  
  <!-- Corner accent squares -->
  <rect x="6" y="6" width="2" height="2" fill="url(#neonGradient)" filter="url(#neonGlow)"/>
  <rect x="24" y="24" width="2" height="2" fill="url(#neonGradient)" filter="url(#neonGlow)"/>
  
  <!-- Letter J - minimalist style -->
  <path d="M10 10h2.5c1.1 0 2 0.9 2 2v6c0 1.1-0.9 2-2 2H10v-1.5h2.5c0.3 0 0.5-0.2 0.5-0.5V12.5c0-0.3-0.2-0.5-0.5-0.5H10V10z" 
        fill="url(#neonGradient)" filter="url(#textGlow)"/>
  
  <!-- Letter L - minimalist style -->
  <path d="M19.5 10H22v8c0 1.1-0.9 2-2 2h-2.5V18h2.5c0.3 0 0.5-0.2 0.5-0.5V10z" 
        fill="url(#neonGradient)" filter="url(#textGlow)"/>
  
  <!-- Center accent dot -->
  <circle cx="16" cy="16" r="1" fill="url(#neonGradient)" filter="url(#neonGlow)"/>
  
  <!-- Subtle grid pattern -->
  <path d="M8 16L24 16" stroke="rgba(6,182,212,0.2)" stroke-width="0.5" stroke-linecap="round"/>
  <path d="M16 8L16 24" stroke="rgba(6,182,212,0.2)" stroke-width="0.5" stroke-linecap="round"/>
</svg> 