<svg width="32" height="32" viewBox="0 0 32 32" fill="none" xmlns="http://www.w3.org/2000/svg">
  <defs>
    <!-- Primary gradient -->
    <linearGradient id="primaryGradient" x1="0%" y1="0%" x2="100%" y2="100%">
      <stop offset="0%" style="stop-color:#06b6d4;stop-opacity:1" />
      <stop offset="33%" style="stop-color:#0ea5e9;stop-opacity:1" />
      <stop offset="66%" style="stop-color:#3b82f6;stop-opacity:1" />
      <stop offset="100%" style="stop-color:#6366f1;stop-opacity:1" />
    </linearGradient>
    
    <!-- Secondary gradient for accents -->
    <linearGradient id="accentGradient" x1="0%" y1="0%" x2="100%" y2="100%">
      <stop offset="0%" style="stop-color:#10b981;stop-opacity:1" />
      <stop offset="100%" style="stop-color:#059669;stop-opacity:1" />
    </linearGradient>
    
    <!-- Text gradient -->
    <linearGradient id="textGradient" x1="0%" y1="0%" x2="100%" y2="100%">
      <stop offset="0%" style="stop-color:#ffffff;stop-opacity:1" />
      <stop offset="100%" style="stop-color:#f1f5f9;stop-opacity:1" />
    </linearGradient>
    
    <!-- Glow filter -->
    <filter id="textGlow" x="-50%" y="-50%" width="200%" height="200%">
      <feGaussianBlur stdDeviation="1.5" result="coloredBlur"/>
      <feMerge> 
        <feMergeNode in="coloredBlur"/>
        <feMergeNode in="SourceGraphic"/>
      </feMerge>
    </filter>
    
    <!-- Drop shadow -->
    <filter id="dropShadow" x="-50%" y="-50%" width="200%" height="200%">
      <feDropShadow dx="0" dy="2" stdDeviation="2" flood-color="rgba(0,0,0,0.4)"/>
    </filter>
  </defs>
  
  <!-- Main background - hexagon-inspired shape -->
  <path d="M16 2L28 9V23L16 30L4 23V9L16 2Z" fill="url(#primaryGradient)" filter="url(#dropShadow)"/>
  
  <!-- Inner geometric pattern -->
  <path d="M16 6L24 10V20L16 24L8 20V10L16 6Z" fill="none" stroke="rgba(255,255,255,0.2)" stroke-width="0.5"/>
  
  <!-- Diagonal accent lines -->
  <path d="M8 10L24 20" stroke="rgba(255,255,255,0.15)" stroke-width="0.5" stroke-linecap="round"/>
  <path d="M24 10L8 20" stroke="rgba(255,255,255,0.15)" stroke-width="0.5" stroke-linecap="round"/>
  
  <!-- Letter J - geometric style -->
  <path d="M10 10h2.5c1.1 0 2 0.9 2 2v6c0 1.1-0.9 2-2 2H10v-1.5h2.5c0.3 0 0.5-0.2 0.5-0.5V12.5c0-0.3-0.2-0.5-0.5-0.5H10V10z" 
        fill="url(#textGradient)" filter="url(#textGlow)"/>
  
  <!-- Letter L - geometric style -->
  <path d="M19.5 10H22v8c0 1.1-0.9 2-2 2h-2.5V18h2.5c0.3 0 0.5-0.2 0.5-0.5V10z" 
        fill="url(#textGradient)" filter="url(#textGlow)"/>
  
  <!-- Corner accent dots -->
  <circle cx="12" cy="12" r="0.8" fill="url(#accentGradient)"/>
  <circle cx="20" cy="20" r="0.8" fill="url(#accentGradient)"/>
  
  <!-- Center accent -->
  <circle cx="16" cy="16" r="1" fill="rgba(255,255,255,0.3)"/>
  
  <!-- Subtle border highlight -->
  <path d="M16 2L28 9V23L16 30L4 23V9L16 2Z" fill="none" stroke="rgba(255,255,255,0.4)" stroke-width="0.3"/>
</svg> 