<svg width="24" height="24" viewBox="0 0 24 24" fill="none" xmlns="http://www.w3.org/2000/svg">
<rect width="24" height="24" fill="white"/>
<path d="M8.35085 7.27273H9.66335V13.4602C9.66335 14.0199 9.55256 14.4986 9.33097 14.8963C9.11222 15.294 8.80398 15.598 8.40625 15.8082C8.00852 16.0156 7.54261 16.1193 7.00852 16.1193C6.51705 16.1193 6.07528 16.0298 5.68324 15.8509C5.29403 15.6719 4.9858 15.4119 4.75852 15.071C4.53409 14.7273 4.42188 14.3097 4.42188 13.8182H5.73011C5.73011 14.0597 5.78551 14.2685 5.89631 14.4446C6.00994 14.6207 6.16477 14.7585 6.3608 14.858C6.55966 14.9545 6.78693 15.0028 7.04261 15.0028C7.32102 15.0028 7.55682 14.9446 7.75 14.8281C7.94602 14.7088 8.09517 14.5341 8.19744 14.304C8.29972 14.0739 8.35085 13.7926 8.35085 13.4602V7.27273ZM11.907 16.081C11.674 16.081 11.4737 15.9986 11.3061 15.8338C11.1385 15.6662 11.0547 15.4645 11.0547 15.2287C11.0547 14.9957 11.1385 14.7969 11.3061 14.6321C11.4737 14.4645 11.674 14.3807 11.907 14.3807C12.1399 14.3807 12.3402 14.4645 12.5078 14.6321C12.6754 14.7969 12.7592 14.9957 12.7592 15.2287C12.7592 15.3849 12.7195 15.5284 12.6399 15.6591C12.5632 15.7869 12.4609 15.8892 12.3331 15.9659C12.2053 16.0426 12.0632 16.081 11.907 16.081ZM14.5682 16V7.27273H15.8849V14.8665H19.8395V16H14.5682Z" fill="black"/>
</svg>
